<svg id="Layer_1" data-name="Layer 1" xmlns="http://www.w3.org/2000/svg" viewBox="0 0 800 174.23"><defs><style>.cls-1{fill:#fff;fill-rule:evenodd;}</style></defs><path class="cls-1" d="M208.75,5.17a5.54,5.54,0,0,0-.1-1c0-.1-.05-.19-.08-.29s-.13-.45-.21-.67l-.15-.32a4.37,4.37,0,0,0-.32-.55c-.07-.11-.14-.22-.22-.33l-.14-.19c-.08-.09-.17-.16-.25-.24l-.2-.24-.16-.11a5.07,5.07,0,0,0-.46-.35l-.39-.25a5.05,5.05,0,0,0-.53-.24l-.42-.17c-.19-.06-.39-.09-.58-.13L204.11,0a5.58,5.58,0,0,0-.71,0H203c-2.68.24-38.09,3.62-77.89,21.37C101.21,32,82.71,48.32,71.07,68.13l-3,1.3C25.46,88.45,0,125.42,0,168.33v.72a5.19,5.19,0,0,0,3,4.7,5.28,5.28,0,0,0,2.19.48H146.64a4.54,4.54,0,0,0,.82-.07l.36-.09c.17-.05.34-.08.51-.14s.25-.12.38-.18.3-.12.44-.2a5.63,5.63,0,0,0,.75-.53l57-48.06a5.16,5.16,0,0,0,1.84-4V5.17ZM157.21,153.28l-5.47,4.61V55.64l46.64-39.31V118.58ZM64.09,126.17h77.28v37.69h-122Zm65.23-95.32a267.23,267.23,0,0,1,56.81-17.77L144.44,48.23A264.47,264.47,0,0,0,88,61.52C98.32,48.92,112.24,38.47,129.32,30.85ZM78.09,76.43a267.64,267.64,0,0,1,63.28-17.35V115.8H67.49A91.66,91.66,0,0,1,78.09,76.43ZM63.86,83.05A102.7,102.7,0,0,0,57,118.56L11,157.38C14.48,125.84,33.21,99.46,63.86,83.05Z"/><path class="cls-1" d="M248.54,144.42V27h48.6q18.84,0,30.29,9.77t11.44,28.79a38.16,38.16,0,0,1-18.66,33.8l25.17,45.08H311.93l-19.89-40H279v40ZM279,80h15.14a13.71,13.71,0,0,0,10-3.79,13.52,13.52,0,0,0,3.88-10.12q0-6.69-3.7-10.57T294,51.63H279ZM349.26,103a45.54,45.54,0,0,1,5.54-22.36,41.48,41.48,0,0,1,15.59-15.93,44.66,44.66,0,0,1,23.06-5.9q13.21,0,23.16,5.9A41.64,41.64,0,0,1,432.1,80.68,45.44,45.44,0,0,1,437.65,103a45.41,45.41,0,0,1-5.55,22.36,41.67,41.67,0,0,1-15.49,15.94q-10,5.9-23.16,5.9a44.66,44.66,0,0,1-23.06-5.9A41.5,41.5,0,0,1,354.8,125.4,45.51,45.51,0,0,1,349.26,103Zm44.19,18.14a14.67,14.67,0,0,0,11.8-5.2,19.33,19.33,0,0,0,4.4-12.94,19.35,19.35,0,0,0-4.4-12.94,16,16,0,0,0-23.59,0A19.3,19.3,0,0,0,377.25,103,19.28,19.28,0,0,0,381.66,116,14.64,14.64,0,0,0,393.45,121.18Zm57.93,23.24h29.76V27H451.38Zm47,0h29.76V27H498.39Zm47-3.88V27h29.76V68.36a21.15,21.15,0,0,1,7.13-5.29A35.18,35.18,0,0,1,590,60.61a33.35,33.35,0,0,1,6-.7q11.61,0,19.63,5.8a36.73,36.73,0,0,1,12.15,15.23,49.75,49.75,0,0,1,4.13,20.17q0,21.83-12.67,34t-37.33,12.15a91.85,91.85,0,0,1-20.16-2.2A149.26,149.26,0,0,1,545.4,140.54Zm29.76-39.26v19.9a32.17,32.17,0,0,0,4.49,1.23,29.49,29.49,0,0,0,5.9.53A15.35,15.35,0,0,0,597.34,118q4.59-4.94,4.58-15.67a24.71,24.71,0,0,0-1.32-7.84,15.63,15.63,0,0,0-4.14-6.6,10.35,10.35,0,0,0-7.39-2.64q-7.4,0-10.65,4.58A19.17,19.17,0,0,0,575.16,101.28Zm118.32,43.14-1.06-7.75A32.82,32.82,0,0,1,681.07,145a38.49,38.49,0,0,1-14.18,2.29,34.31,34.31,0,0,1-11.44-2.12,22.12,22.12,0,0,1-10.22-7.57Q641,132.1,641,122.24q0-10,5.46-16.73A33.64,33.64,0,0,1,661,95.38,55,55,0,0,1,680.62,92q4.05,0,6.52.18c1.64.11,3.4.29,5.28.53V91.07q0-4.39-2.2-6.6a11.34,11.34,0,0,0-5.37-3,25.27,25.27,0,0,0-6.16-.79,43.58,43.58,0,0,0-13.82,2,37,37,0,0,0-9.77,4.66L643.83,70.29q5.28-4.22,14.87-7.74T682.91,59q17.26,0,27.91,8.9t10.65,26.49v50Zm-1.06-30.29v-5.45a36.86,36.86,0,0,0-8.1-.71q-7.4,0-10.91,2.91a8.73,8.73,0,0,0-3.52,7q0,9.17,9.86,9.16a15.15,15.15,0,0,0,8.62-2.73Q692.42,121.53,692.42,114.13Zm46,30.29V61.66h28.7l1,10.39a32.93,32.93,0,0,1,8.72-8.36,22.31,22.31,0,0,1,12.59-3.43,44.36,44.36,0,0,1,6.07.35,22.32,22.32,0,0,1,4.49,1L796.13,87A35.72,35.72,0,0,0,787.5,86q-19.37,0-19.37,21.31v37.15Z"/></svg>